<svg width="18" height="18" viewBox="0 0 18 18" fill="none" xmlns="http://www.w3.org/2000/svg">
<path d="M0.6875 15L5.6875 17.8868V12.1132L0.6875 15ZM3.92188 15.5H5V14.5H3.92188V15.5ZM5 15.5C5.33011 15.5 5.65732 15.4872 5.98117 15.462L5.90371 14.465C5.60561 14.4882 5.30423 14.5 5 14.5V15.5ZM7.9189 15.1572C8.56164 15.0035 9.1851 14.8001 9.78498 14.5513L9.40193 13.6276C8.85036 13.8563 8.27715 14.0433 7.68621 14.1847L7.9189 15.1572ZM11.5324 13.6593C12.0917 13.3158 12.6219 12.9296 13.1184 12.5051L12.4686 11.745C12.0116 12.1357 11.5237 12.4911 11.0091 12.8072L11.5324 13.6593ZM14.5051 11.1184C14.9296 10.6219 15.3158 10.0917 15.6593 9.53236L14.8072 9.00907C14.4911 9.52368 14.1357 10.0116 13.745 10.4686L14.5051 11.1184ZM16.5513 7.78498C16.8001 7.1851 17.0035 6.56164 17.1572 5.9189L16.1847 5.68621C16.0433 6.27715 15.8563 6.85036 15.6276 7.40193L16.5513 7.78498ZM17.462 3.98117C17.4872 3.65732 17.5 3.33011 17.5 3H16.5C16.5 3.30423 16.4882 3.60561 16.465 3.90371L17.462 3.98117ZM17.5 3V2.25H16.5V3H17.5ZM17.5 0.75V0H16.5V0.75H17.5Z" fill="#CDCDCD"/>
</svg>
