<svg width="24" height="24" viewBox="0 0 24 24" fill="none" xmlns="http://www.w3.org/2000/svg">
<g clip-path="url(#clip0_1573_807)">
<path d="M6.56301 9.66902C6.56301 9.66902 6.45067 8.8733 8.04527 7.33319C8.98948 6.42126 9.64817 5.85057 10.1307 4.50992C10.2208 4.25932 10.2416 3.08691 10.2513 2.72256C10.2845 1.48102 10.9192 0.529053 11.9732 0.529053C12.9536 0.529053 13.7823 1.38614 13.9078 2.53174C13.984 3.22676 14.0447 3.95087 14.0345 4.42862C14.0085 5.61672 13.4141 8.81581 13.4141 8.81581H21.9488C22.7894 8.81581 23.4709 9.61893 23.4709 10.6095C23.4709 11.5417 22.8649 12.3186 22.0764 12.3969L21.3645 12.4676C21.316 12.4724 21.3139 12.5549 21.3619 12.5634L22.0923 12.6919C22.7656 12.8104 23.264 13.492 23.264 14.2943C23.264 15.1891 22.6485 15.9145 21.8892 15.9145H21.0224C20.9554 15.9145 20.9469 16.0289 21.0128 16.0427L21.6662 16.1781C22.2912 16.3076 22.7469 16.9474 22.7469 17.6951C22.7469 18.5459 22.1618 19.2354 21.44 19.2354H20.342C20.2676 19.2354 20.2552 19.3611 20.3277 19.3813L20.4748 19.4218C21.0485 19.5804 21.4543 20.1833 21.4543 20.8778C21.4543 21.7037 20.886 22.3733 20.1852 22.3733H8.50203C8.50203 22.3733 7.63472 22.432 7.2582 22.1329C6.56301 21.5808 6.56301 20.9356 6.56301 20.9356V9.66866V9.66902Z" fill="white" stroke="#10725B" stroke-width="1.05813" stroke-miterlimit="10"/>
<path d="M6.56147 10.0327V9.47803C6.56147 9.05619 6.21952 8.71423 5.79768 8.71423H1.7274C1.06554 8.71423 0.529068 9.21896 0.529068 9.8415V21.6014C0.529068 22.2239 1.06554 22.7287 1.7274 22.7287H5.79768C6.21952 22.7287 6.56147 22.3867 6.56147 21.9649V10.0325V10.0327Z" fill="#78D1B5" stroke="#10725B" stroke-width="1.05813" stroke-miterlimit="10"/>
<path d="M3.76337 21.0123C4.19773 20.8914 4.45186 20.4413 4.331 20.007C4.21013 19.5726 3.76004 19.3185 3.32568 19.4394C2.89133 19.5602 2.6372 20.0103 2.75806 20.4447C2.87893 20.879 3.32902 21.1332 3.76337 21.0123Z" fill="white"/>
<path d="M4.71068 9.23589L6.04093 9.24595V22.2357H1.67243C1.32184 22.2357 1.03755 21.9515 1.03755 21.6009V21.3287H3.41835C4.13206 21.3287 4.71085 20.7501 4.71085 20.0362V9.23572L4.71068 9.23589Z" fill="#1EC471"/>
<path d="M11.7544 1.08056C11.7544 1.08056 12.4143 1.51175 12.4575 3.08378C12.5416 6.13596 11.6053 7.89704 11.1174 8.60193C11.0121 8.75395 11.1216 8.96134 11.3066 8.95958L12.8631 8.94529C12.8631 8.94529 13.4855 6.09945 13.5082 4.45935C13.5202 3.59732 13.5154 2.25244 13.0812 1.68175C12.7014 1.18267 12.461 1.09096 12.1346 1.06204C11.9106 1.04229 11.7545 1.08073 11.7545 1.08073L11.7544 1.08056Z" fill="#E2E0E0"/>
<path d="M20.114 9.34169C20.114 9.34169 21.021 9.46267 21.3989 10.0824C21.6675 10.5229 21.7012 11.0599 21.4291 11.5184C21.2707 11.7853 20.5482 12.0586 20.1348 12.1971C20.011 12.2385 19.9788 12.3986 20.0772 12.4843C20.4196 12.7826 21.0185 13.3649 21.0512 13.8162C21.1268 14.8591 20.5978 15.4386 20.1946 15.7561C20.157 15.7857 20.1234 15.812 20.093 15.8353C19.9645 15.9346 19.9585 16.1264 20.0809 16.2333C20.3803 16.4945 20.8394 16.9426 20.8547 17.2475C20.9053 18.26 20.2803 18.4945 19.8647 18.6836C19.7659 18.7285 19.5648 18.8118 19.4883 18.8321C19.0342 18.9525 19.0266 18.9941 19.3356 19.2957C19.5902 19.5444 19.7444 20.1106 19.6454 20.4521C19.5345 20.8349 18.2364 20.9951 17.6502 21.0416C15.9769 21.1746 7.96826 21.3818 7.12934 20.5427C6.82089 20.2343 6.9969 21.8881 6.9969 21.8881H21.0526L21.4402 19.2354L22.6743 18.203L22.2454 16.2195L23.1071 14.723L22.6687 12.7579L23.3792 11.2241L23.1524 9.26603L21.6106 8.8158L20.114 9.34169Z" fill="#E2E0E0"/>
<path d="M6.56301 9.66902C6.56301 9.66902 6.45067 8.8733 8.04527 7.33319C8.98948 6.42126 9.64817 5.85057 10.1307 4.50992C10.2208 4.25932 10.2416 3.08691 10.2513 2.72256C10.2845 1.48102 10.9192 0.529053 11.9732 0.529053C12.9536 0.529053 13.7823 1.38614 13.9078 2.53174C13.984 3.22676 14.0447 3.95087 14.0345 4.42862C14.0085 5.61673 13.4141 8.81581 13.4141 8.81581H21.9488C22.7894 8.81581 23.4709 9.61893 23.4709 10.6095C23.4709 11.5417 22.8649 12.3186 22.0764 12.3969L21.3645 12.4676C21.316 12.4724 21.3139 12.5549 21.3619 12.5634L22.0923 12.6919C22.7656 12.8104 23.264 13.492 23.264 14.2943C23.264 15.1891 22.6485 15.9145 21.8892 15.9145H21.0224C20.9554 15.9145 20.9469 16.0289 21.0128 16.0427L21.6662 16.1781C22.2912 16.3076 22.7469 16.9474 22.7469 17.6951C22.7469 18.5459 22.1618 19.2354 21.44 19.2354H20.342C20.2676 19.2354 20.2552 19.3611 20.3277 19.3813L20.4748 19.4218C21.0485 19.5804 21.4543 20.1833 21.4543 20.8778C21.4543 21.7037 20.886 22.3733 20.1852 22.3733H8.50203C8.50203 22.3733 7.63472 22.432 7.2582 22.1329C6.56301 21.5808 6.56301 20.9356 6.56301 20.9356V9.66866V9.66902Z" stroke="#10725B" stroke-width="1.05813" stroke-miterlimit="10"/>
<path d="M22 4.12891L20.1452 4.77414L19.5 6.62891L18.8548 4.77414L17 4.12891L18.8548 3.48367L19.5 1.62891L20.1452 3.48367L22 4.12891Z" fill="#6BBFA5"/>
<path d="M6 5.62891L4.51619 6.14509L4 7.62891L3.48381 6.14509L2 5.62891L3.48381 5.11272L4 3.62891L4.51619 5.11272L6 5.62891Z" fill="#6BBFA5"/>
<path d="M9 2.12891L7.88714 2.51605L7.5 3.62891L7.11286 2.51605L6 2.12891L7.11286 1.74177L7.5 0.628906L7.88714 1.74177L9 2.12891Z" fill="#6BBFA5"/>
</g>
<defs>
<clipPath id="clip0_1573_807">
<rect width="24" height="23.2579" fill="white"/>
</clipPath>
</defs>
</svg>
