<svg width="17" height="18" viewBox="0 0 17 18" fill="none" xmlns="http://www.w3.org/2000/svg">
<path d="M16.875 15L11.875 17.8868V12.1132L16.875 15ZM13.6406 15.5H12.5625V14.5H13.6406V15.5ZM12.5625 15.5C12.2324 15.5 11.9052 15.4872 11.5813 15.462L11.6588 14.465C11.9569 14.4882 12.2583 14.5 12.5625 14.5V15.5ZM9.6436 15.1572C9.00086 15.0035 8.3774 14.8001 7.77752 14.5513L8.16057 13.6276C8.71214 13.8563 9.28535 14.0433 9.87629 14.1847L9.6436 15.1572ZM6.03014 13.6593C5.47079 13.3158 4.94061 12.9296 4.44413 12.5051L5.09393 11.745C5.55091 12.1357 6.03881 12.4911 6.55343 12.8072L6.03014 13.6593ZM3.05735 11.1184C2.63293 10.6219 2.24669 10.0917 1.9032 9.53236L2.75535 9.00907C3.07137 9.52368 3.4268 10.0116 3.81746 10.4686L3.05735 11.1184ZM1.0112 7.78498C0.762444 7.1851 0.559029 6.56164 0.405251 5.9189L1.3778 5.68621C1.51919 6.27715 1.7062 6.85036 1.93493 7.40193L1.0112 7.78498ZM0.100466 3.98117C0.0753078 3.65732 0.0625 3.33011 0.0625 3H1.0625C1.0625 3.30423 1.0743 3.60561 1.09746 3.90371L0.100466 3.98117ZM0.0625 3V2.25H1.0625V3H0.0625ZM0.0625 0.75V0H1.0625V0.75H0.0625Z" fill="#CDCDCD"/>
</svg>
